<?xml version="1.0" encoding="UTF-8"?>
<svg id="Calque_1" data-name="Calque 1" xmlns="http://www.w3.org/2000/svg" viewBox="0 0 64 64">
  <defs>
    <style>
      .cls-1 {
        fill: #27ae63;
      }
    </style>
  </defs>
  <path class="cls-1" d="M45.11,37.34v10.27c0,3.46-1.76,5.16-5.21,5.16h-15.8c-3.51,0-5.21-1.7-5.21-5.16v-8.93h.05l8.93,5.16v.52l-.52.9c-.43.75.11,1.68.97,1.68h11.77c.86,0,1.4-.93.97-1.68l-5.89-10.2c-.43-.75-1.51-.75-1.94,0l-.45.77c-.31.54-1,.72-1.54.4l-9.57-5.66c-1.86-1.13-2.79-2.63-2.79-4.49v-9.75c0-3.41,1.76-5.11,5.26-5.11h15.64c3.46,0,5.22,1.7,5.22,5.11v6.62c0,.81-.84,1.36-1.58,1.02l-5.58-2.55c-.6-.27-.83-1.01-.5-1.58l.44-.76c.43-.75-.11-1.68-.97-1.68h-11.77c-.86,0-1.4.93-.97,1.68l5.89,10.19c.43.75,1.51.75,1.94,0l.35-.6c.31-.53.98-.72,1.52-.42l9.66,5.43c.09.05.18.11.25.19.95.91,1.43,2.07,1.43,3.45Z"/>
</svg>